<svg width="21" height="20" viewBox="0 0 21 20" fill="none" xmlns="http://www.w3.org/2000/svg">
<path d="M9.1323 1.03691C9.66315 -0.141821 11.3368 -0.14182 11.8677 1.03691L13.6232 4.93482C13.8413 5.41928 14.2995 5.75217 14.8277 5.80996L19.0773 6.27498C20.3624 6.41561 20.8796 8.00739 19.9226 8.8765L16.7579 11.7506C16.3646 12.1078 16.1896 12.6464 16.2978 13.1666L17.1688 17.3519C17.4321 18.6175 16.0781 19.6013 14.9558 18.9597L11.2444 16.8381C10.7832 16.5744 10.2168 16.5744 9.75556 16.8381L6.04422 18.9597C4.92192 19.6013 3.56787 18.6175 3.83124 17.3519L4.70218 13.1666C4.81043 12.6464 4.63542 12.1078 4.24209 11.7506L1.07742 8.8765C0.120427 8.00739 0.637629 6.41561 1.92271 6.27498L6.17231 5.80996C6.70048 5.75217 7.15866 5.41928 7.37684 4.93482L9.1323 1.03691Z" fill="#FC7613"/>
</svg>
